<svg width="48" height="48" viewBox="0 0 48 48" fill="none" xmlns="http://www.w3.org/2000/svg">
<path d="M23.5378 41.4555L40.9383 24.0515C41.928 23.0746 42.7147 21.9115 43.2531 20.6293C43.7916 19.347 44.0711 17.971 44.0756 16.5803C44.0801 15.1896 43.8095 13.8118 43.2794 12.5261C42.7493 11.2404 41.9701 10.0723 40.9867 9.0889C40.0034 8.10554 38.8352 7.32638 37.5495 6.79627C36.2639 6.26615 34.886 5.99555 33.4953 6.00006C32.1047 6.00456 30.7286 6.28407 29.4464 6.82249C28.1641 7.36091 27.0011 8.14762 26.0241 9.13733L23.5378 11.6202L21.0515 9.13733C20.0746 8.14762 18.9115 7.36091 17.6293 6.82249C16.347 6.28407 14.971 6.00456 13.5803 6.00006C12.1896 5.99555 10.8118 6.26615 9.5261 6.79627C8.24041 7.32638 7.07226 8.10554 6.0889 9.0889C5.10554 10.0723 4.32637 11.2404 3.79626 12.5261C3.26615 13.8118 2.99555 15.1896 3.00006 16.5803C3.00456 17.971 3.28406 19.347 3.82249 20.6293C4.36091 21.9115 5.14762 23.0746 6.13733 24.0515L23.5378 41.4555Z" stroke="#564CFF" stroke-width="3" stroke-linecap="round" stroke-linejoin="round"/>
</svg>
