<svg width="48" height="48" viewBox="0 0 48 48" fill="none" xmlns="http://www.w3.org/2000/svg">
<path d="M17.1426 22.2857C19.4159 22.2857 21.596 21.3826 23.2035 19.7752C24.8109 18.1677 25.714 15.9875 25.714 13.7143C25.714 11.441 24.8109 9.26079 23.2035 7.65334C21.596 6.04588 19.4159 5.14282 17.1426 5.14282C14.8693 5.14282 12.6891 6.04588 11.0817 7.65334C9.47421 9.26079 8.57115 11.441 8.57115 13.7143C8.57115 15.9875 9.47421 18.1677 11.0817 19.7752C12.6891 21.3826 14.8693 22.2857 17.1426 22.2857ZM17.1426 22.2857C20.5934 22.2857 23.6089 23.5885 25.7534 25.7537C27.0249 27.0428 27.9761 28.6123 28.5306 30.336M17.1426 22.2857C10.2854 22.2857 5.14258 27.4285 5.14258 34.2857V42.8571H22.2854M23.9997 35.6983L31.1826 41.1428L42.8569 25.7143" stroke="#564CFF" stroke-width="3"/>
</svg>
