<svg width="33" height="34" viewBox="0 0 33 34" fill="none" xmlns="http://www.w3.org/2000/svg">
<path d="M6.1875 13.8404V29.3752H26.8125V13.8404L16.5 5.24806L6.1875 13.8404ZM4.49625 12.5658L15.84 3.11338C16.0253 2.95903 16.2588 2.87451 16.5 2.87451C16.7412 2.87451 16.9747 2.95903 17.16 3.11338L28.5037 12.5658C28.6199 12.6626 28.7133 12.7836 28.7775 12.9205C28.8417 13.0574 28.8749 13.2067 28.875 13.3578V30.4064C28.875 30.6799 28.7664 30.9422 28.573 31.1356C28.3796 31.329 28.1173 31.4377 27.8438 31.4377H5.15625C4.88275 31.4377 4.62044 31.329 4.42705 31.1356C4.23365 30.9422 4.125 30.6799 4.125 30.4064V13.3578C4.12506 13.2067 4.15834 13.0574 4.2225 12.9205C4.28665 12.7836 4.38011 12.6626 4.49625 12.5658Z" fill="white"/>
</svg>
