<svg width="39" height="38" viewBox="0 0 39 38" fill="none" xmlns="http://www.w3.org/2000/svg">
<path d="M7.6861 31.9104C7.2206 31.9104 6.83004 31.7521 6.51443 31.4354C6.19882 31.1188 6.04102 30.7293 6.04102 30.2669V12.9706C6.04102 12.5062 6.19882 12.1161 6.51443 11.8005C6.83004 11.4839 7.2206 11.3255 7.6861 11.3255H12.3743V6.63885C12.3743 6.17335 12.5322 5.7828 12.8478 5.46719C13.1634 5.15052 13.5539 4.99219 14.0194 4.99219H24.9808C25.4453 4.99219 25.8353 5.15052 26.1509 5.46719C26.4665 5.7828 26.6243 6.17335 26.6243 6.63885V17.6589H31.3142C31.7786 17.6589 32.1687 17.8172 32.4843 18.1339C32.7999 18.4495 32.9577 18.84 32.9577 19.3055V30.2669C32.9577 30.7314 32.7999 31.1214 32.4843 31.437C32.1687 31.7526 31.7781 31.9104 31.3126 31.9104H21.8743V25.5771H17.1243V31.9104H7.6861ZM7.62435 30.3271H12.3743V25.5771H7.62435V30.3271ZM7.62435 23.9938H12.3743V19.2438H7.62435V23.9938ZM7.62435 17.6604H12.3743V12.9104H7.62435V17.6604ZM13.9577 23.9938H18.7077V19.2438H13.9577V23.9938ZM13.9577 17.6604H18.7077V12.9104H13.9577V17.6604ZM13.9577 11.3271H18.7077V6.5771H13.9577V11.3271ZM20.291 23.9938H25.041V19.2438H20.291V23.9938ZM20.291 17.6604H25.041V12.9104H20.291V17.6604ZM20.291 11.3271H25.041V6.5771H20.291V11.3271ZM26.6243 30.3271H31.3743V25.5771H26.6243V30.3271ZM26.6243 23.9938H31.3743V19.2438H26.6243V23.9938Z" fill="white"/>
</svg>
