<svg width="28" height="28" viewBox="0 0 28 28" fill="none" xmlns="http://www.w3.org/2000/svg">
<g clip-path="url(#clip0_2145_1663)">
<path d="M0.288244 15.9131C0.0206865 15.6455 -0.107741 15.3334 -0.0970388 14.9766C-0.0863365 14.6199 0.0532393 14.3077 0.321689 14.0402C0.589246 13.7949 0.901397 13.6665 1.25814 13.6549C1.61488 13.6433 1.92703 13.7717 2.19459 14.0402L6.94374 18.7893L7.41196 19.2575L7.88019 19.7258C8.14775 19.9933 8.27617 20.3055 8.26547 20.6622C8.25477 21.019 8.11519 21.3311 7.84674 21.5987C7.57919 21.8439 7.26704 21.9724 6.91029 21.9839C6.55355 21.9955 6.2414 21.8671 5.97384 21.5987L0.288244 15.9131ZM14.4688 18.7559L25.84 7.38467C26.1075 7.11711 26.4197 6.98913 26.7764 7.00072C27.1332 7.01232 27.4453 7.15145 27.7129 7.41811C27.9582 7.68567 28.0866 7.99782 28.0982 8.35456C28.1098 8.71131 27.9813 9.02346 27.7129 9.29102L15.4052 21.5987C15.1377 21.8662 14.8255 22 14.4688 22C14.1121 22 13.7999 21.8662 13.5323 21.5987L7.84674 15.9131C7.60148 15.6678 7.47885 15.3614 7.47885 14.994C7.47885 14.6266 7.60148 14.3086 7.84674 14.0402C8.1143 13.7726 8.43225 13.6388 8.80059 13.6388C9.16892 13.6388 9.48643 13.7726 9.75309 14.0402L14.4688 18.7559ZM20.1209 9.32446L15.4052 14.0402C15.16 14.2854 14.8536 14.4081 14.4862 14.4081C14.1187 14.4081 13.8008 14.2854 13.5323 14.0402C13.2648 13.7726 13.131 13.4551 13.131 13.0877C13.131 12.7202 13.2648 12.4023 13.5323 12.1338L18.248 7.41811C18.4933 7.17285 18.8001 7.05022 19.1684 7.05022C19.5368 7.05022 19.8543 7.17285 20.1209 7.41811C20.3885 7.68567 20.5223 8.00317 20.5223 8.37062C20.5223 8.73806 20.3885 9.05601 20.1209 9.32446Z" fill="white"/>
</g>
<defs>
<clipPath id="clip0_2145_1663">
<rect width="28" height="28" fill="white"/>
</clipPath>
</defs>
</svg>
