<svg width="52" height="52" viewBox="0 0 52 52" fill="none" xmlns="http://www.w3.org/2000/svg">
<path d="M19.0195 4.90039C19.3889 4.90039 19.7226 5.05187 20.0176 5.34375L26.2734 11.5391H26.2744C26.5107 11.7711 26.6804 12.0137 26.7793 12.2666C26.8768 12.5161 26.9258 12.7865 26.9258 13.0762C26.9258 13.3658 26.8768 13.6362 26.7793 13.8857C26.7052 14.0752 26.5914 14.2588 26.4395 14.4365L26.2744 14.6123L20.0146 20.8105C19.7852 21.0377 19.5106 21.1749 19.1934 21.2217L19.0547 21.2363C18.7198 21.2578 18.4127 21.1482 18.1357 20.917L18.0195 20.8105C17.7246 20.5186 17.5703 20.188 17.5703 19.8213C17.5704 19.4548 17.7248 19.1248 18.0195 18.833L22.4062 14.4756H17.3037C14.2574 14.4756 11.6426 15.4566 9.45508 17.4199L9.02344 17.8262C6.74928 20.0583 5.61234 22.7789 5.6123 25.9941C5.6123 29.3065 6.88881 32.0591 9.44531 34.2588C12.005 36.4611 15.0091 37.5637 18.4619 37.5654H21.334V44.4102L28.1719 37.5938L28.2012 37.5654H35.6445C38.8937 37.5654 41.6609 36.441 43.9512 34.1914C46.2412 31.9418 47.3857 29.211 47.3857 25.9941C47.3857 22.7774 46.2412 20.0476 43.9512 17.7998C41.804 15.6923 39.2378 14.5721 36.248 14.4375L35.6445 14.4238C35.2481 14.4238 34.9109 14.2908 34.6396 14.0244C34.4018 13.7906 34.2685 13.5046 34.2402 13.1719L34.2344 13.0264C34.2362 12.6317 34.3709 12.2973 34.6387 12.0303C34.9068 11.763 35.2448 11.63 35.6445 11.6299C39.6913 11.6299 43.132 13.0222 45.96 15.8057L46.2217 16.0684C48.879 18.8022 50.208 22.1128 50.208 25.9941C50.208 30.0008 48.7915 33.399 45.96 36.1826C43.1285 38.966 39.6878 40.3584 35.6445 40.3584H29.4395L22.2812 47.4395L22.2822 47.4404C22.1058 47.6164 21.9187 47.7562 21.7217 47.8584L21.5205 47.9482C21.2554 48.0489 20.9917 48.0996 20.7305 48.0996C20.1733 48.0995 19.6654 47.8992 19.209 47.5049C18.7442 47.1033 18.5138 46.5602 18.5137 45.8867V40.3398H18.1582C13.9604 40.2598 10.3483 38.862 7.32715 36.1465C4.30358 33.4287 2.79121 30.0425 2.79297 25.9941L2.79688 25.6201C2.88214 21.7765 4.28737 18.5119 7.01172 15.832L7.27734 15.5762C10.0394 12.9784 13.3835 11.6797 17.3037 11.6797H22.4053L18.0059 7.32227C17.7435 7.06252 17.6027 6.74402 17.584 6.37207C17.5648 5.99123 17.7152 5.64695 18.0215 5.34375L18.1348 5.24121C18.4011 5.01669 18.6964 4.90045 19.0195 4.90039Z" fill="#564CFF" stroke="#564CFF" stroke-width="0.2"/>
</svg>
