<svg width="24" height="24" viewBox="0 0 24 24" fill="none" xmlns="http://www.w3.org/2000/svg">
<g clip-path="url(#clip0_2145_1501)">
<path d="M24 14H14V24C14 24.5304 13.7893 25.0391 13.4142 25.4142C13.0391 25.7893 12.5304 26 12 26C11.4696 26 10.9609 25.7893 10.5858 25.4142C10.2107 25.0391 10 24.5304 10 24V14H0C-0.530433 14 -1.03914 13.7893 -1.41421 13.4142C-1.78929 13.0391 -2 12.5304 -2 12C-2 11.4696 -1.78929 10.9609 -1.41421 10.5858C-1.03914 10.2107 -0.530433 10 0 10H10V2.38419e-07C10 -0.530433 10.2107 -1.03914 10.5858 -1.41421C10.9609 -1.78929 11.4696 -2 12 -2C12.5304 -2 13.0391 -1.78929 13.4142 -1.41421C13.7893 -1.03914 14 -0.530433 14 2.38419e-07V10H24C24.5304 10 25.0391 10.2107 25.4142 10.5858C25.7893 10.9609 26 11.4696 26 12C26 12.5304 25.7893 13.0391 25.4142 13.4142C25.0391 13.7893 24.5304 14 24 14Z" fill="white"/>
</g>
<defs>
<clipPath id="clip0_2145_1501">
<rect width="24" height="24" fill="white"/>
</clipPath>
</defs>
</svg>
