<svg width="952" id="Sanacasa_Logo" height="114" viewBox="0 0 952 114" fill="none" xmlns="http://www.w3.org/2000/svg">
<g clip-path="url(#clip0_2213_1768)">
<path class="letter" d="M87.7004 79.9996C87.7004 100.6 67.7004 113.8 44.4004 113.8C23.2004 113.8 8.30039 106 -0.0996094 90.6996L21.5004 78.4996C25.8004 86.6996 32.6004 90.1996 42.9004 90.1996C52.4004 90.1996 58.4004 86.4996 58.4004 80.4996C58.4004 63.9996 2.40039 78.1996 2.40039 38.8996C2.40039 20.5996 18.5004 6.09961 43.6004 6.09961C65.4004 6.09961 78.6004 16.3996 84.8004 28.0996L63.2004 40.2996C59.9004 32.8996 52.5004 29.3996 44.2004 29.3996C37.0004 29.3996 31.6004 32.8996 31.6004 38.2996C31.6004 54.7996 87.7004 41.5996 87.7004 79.9996Z" fill="url(#paint0_linear_2213_1768)"/>
<path class="letter" d="M160.1 5.59961C128.8 5.59961 104.9 29.6996 104.9 59.3996C104.9 89.0996 125.7 113.4 155.4 113.4C169.4 113.4 180.5 107.9 187.7 98.7996V110.8H215.5V59.4996C215.5 28.7996 191.4 5.59961 160.1 5.59961ZM160.1 86.1996C145 86.1996 134.1 74.1996 134.1 59.7996C134.1 45.3996 145 33.3996 160.1 33.3996C175.2 33.3996 186.3 45.3996 186.3 59.7996C186.3 74.1996 175.2 86.1996 160.1 86.1996Z" fill="url(#paint1_linear_2213_1768)"/>
<path id="Icona" d="M237.801 29.4998V110.9H267.101V47.2998C286.901 35.8998 275.901 42.2998 291.001 33.3998C307.401 42.4998 299.101 37.7998 315.301 47.2998V110.9H344.601V29.4998C305.101 7.29982 291.001 0.299805 291.001 0.299805C291.001 0.299805 275.701 9.19982 237.801 29.4998Z" fill="url(#paint2_linear_2213_1768)"/>
<path class="letter" d="M419.2 5.59961C387.9 5.59961 364 29.6996 364 59.3996C364 89.0996 384.8 113.4 414.5 113.4C428.5 113.4 439.6 107.9 446.8 98.7996V110.8H474.6V59.4996C474.6 28.7996 450.5 5.59961 419.2 5.59961ZM419.1 86.1996C404 86.1996 393.1 74.1996 393.1 59.7996C393.1 45.3996 404 33.3996 419.1 33.3996C434.2 33.3996 445.3 45.3996 445.3 59.7996C445.3 74.1996 434.2 86.1996 419.1 86.1996Z" fill="url(#paint3_linear_2213_1768)"/>
<path class="letter" d="M548.7 33.5996C558.8 33.5996 567 39.1997 571.6 47.9997L595.7 34.7997C586.4 14.9997 568.3 6.19966 548.7 5.89966C518 5.69966 493.9 29.9997 493.9 59.6997C493.9 89.3997 518 113.7 548.7 113.5C568.3 113.3 586.4 104.4 595.7 84.6997L571.6 71.4997C567.1 80.3997 558.8 85.8997 548.7 85.8997C534.1 85.8997 523.2 74.1997 523.2 59.6997C523.2 45.1997 534.1 33.5996 548.7 33.5996Z" fill="url(#paint4_linear_2213_1768)"/>
<path class="letter" d="M663.3 5.7002C632 5.7002 608.1 29.8002 608.1 59.5002C608.1 89.2002 628.9 113.5 658.6 113.5C672.6 113.5 683.7 108 690.9 98.9002V110.9H718.7V59.6002C718.7 28.9002 694.6 5.7002 663.3 5.7002ZM663.2 86.2002C648.1 86.2002 637.2 74.2002 637.2 59.8002C637.2 45.4002 648.1 33.4002 663.2 33.4002C678.3 33.4002 689.4 45.4002 689.4 59.8002C689.4 74.2002 678.3 86.2002 663.2 86.2002Z" fill="url(#paint5_linear_2213_1768)"/>
<path class="letter" d="M770.399 38.2996C770.399 32.8996 775.799 29.3996 782.999 29.3996C791.199 29.3996 798.699 32.8996 801.899 40.2996L823.499 28.0996C817.299 16.3996 804.099 6.09961 782.299 6.09961C757.199 6.09961 741.099 20.4996 741.099 38.8996C741.099 78.1996 797.099 63.9996 797.099 80.4996C797.099 86.4996 791.099 90.1996 781.699 90.1996C771.399 90.1996 764.599 86.6996 760.299 78.4996L738.699 90.6996C747.099 105.9 761.999 113.8 783.199 113.8C806.499 113.8 826.499 100.6 826.499 79.9996C826.399 41.5996 770.399 54.7996 770.399 38.2996Z" fill="url(#paint6_linear_2213_1768)"/>
<path class="letter" d="M896.7 5.7002C865.4 5.7002 841.5 29.8002 841.5 59.5002C841.5 89.2002 862.3 113.5 892 113.5C906 113.5 917.1 108 924.3 98.9002V110.9H952.1V59.6002C952.1 28.9002 928 5.7002 896.7 5.7002ZM896.7 86.2002C881.6 86.2002 870.7 74.2002 870.7 59.8002C870.7 45.4002 881.6 33.4002 896.7 33.4002C911.8 33.4002 922.9 45.4002 922.9 59.8002C922.9 74.2002 911.8 86.2002 896.7 86.2002Z" fill="url(#paint7_linear_2213_1768)"/>
</g>
<defs>
<linearGradient id="paint0_linear_2213_1768" x1="-11.9996" y1="59.9496" x2="953.026" y2="59.9496" gradientUnits="userSpaceOnUse">
<stop stop-color="#060062"/>
<stop offset="1" stop-color="#564CFF"/>
</linearGradient>
<linearGradient id="paint1_linear_2213_1768" x1="-11.9996" y1="59.4996" x2="953.026" y2="59.4996" gradientUnits="userSpaceOnUse">
<stop stop-color="#060062"/>
<stop offset="1" stop-color="#564CFF"/>
</linearGradient>
<linearGradient id="paint2_linear_2213_1768" x1="-11.9992" y1="55.5998" x2="953.026" y2="55.5998" gradientUnits="userSpaceOnUse">
<stop stop-color="#060062"/>
<stop offset="1" stop-color="#564CFF"/>
</linearGradient>
<linearGradient id="paint3_linear_2213_1768" x1="-11.9999" y1="59.4996" x2="953.025" y2="59.4996" gradientUnits="userSpaceOnUse">
<stop stop-color="#060062"/>
<stop offset="1" stop-color="#564CFF"/>
</linearGradient>
<linearGradient id="paint4_linear_2213_1768" x1="-11.9992" y1="59.6997" x2="953.025" y2="59.6997" gradientUnits="userSpaceOnUse">
<stop stop-color="#060062"/>
<stop offset="1" stop-color="#564CFF"/>
</linearGradient>
<linearGradient id="paint5_linear_2213_1768" x1="-12.0003" y1="59.6002" x2="953.025" y2="59.6002" gradientUnits="userSpaceOnUse">
<stop stop-color="#060062"/>
<stop offset="1" stop-color="#564CFF"/>
</linearGradient>
<linearGradient id="paint6_linear_2213_1768" x1="-12.0012" y1="59.9496" x2="953.025" y2="59.9496" gradientUnits="userSpaceOnUse">
<stop stop-color="#060062"/>
<stop offset="1" stop-color="#564CFF"/>
</linearGradient>
<linearGradient id="paint7_linear_2213_1768" x1="-11.9998" y1="59.6002" x2="953.025" y2="59.6002" gradientUnits="userSpaceOnUse">
<stop stop-color="#060062"/>
<stop offset="1" stop-color="#564CFF"/>
</linearGradient>
<clipPath id="clip0_2213_1768">
<rect width="952" height="114" fill="white"/>
</clipPath>
</defs>
</svg>
