<?xml version="1.0" encoding="utf-8"?>
<!-- Generator: Adobe Illustrator 27.8.0, SVG Export Plug-In . SVG Version: 6.00 Build 0)  -->
<svg version="1.1" id="Sanacasa_Logo" xmlns="http://www.w3.org/2000/svg" xmlns:xlink="http://www.w3.org/1999/xlink" x="0px"
	 y="0px" viewBox="0 0 1920 1080" style="enable-background:new 0 0 1920 1080;" xml:space="preserve">
<style type="text/css">
	.st0{fill:url(#SVGID_1_);}
	.st1{fill:url(#SVGID_00000126314260793818260000000005109270587365012902_);}
	.st2{fill:url(#Icona_00000167362320477665950030000000980413861455492532_);}
	.st3{fill:url(#SVGID_00000013165554245218833920000013428521250333091200_);}
	.st4{fill:url(#SVGID_00000150792443686626999470000015527938558067533220_);}
	.st5{fill:url(#SVGID_00000032647652200987011310000017000626303306286496_);}
	.st6{fill:url(#SVGID_00000035527549297158422530000011337194238079702160_);}
	.st7{fill:url(#SVGID_00000004532384183123285130000016903502352637429378_);}
</style>
<linearGradient id="SVGID_1_" gradientUnits="userSpaceOnUse" x1="472" y1="542.95" x2="1437.0254" y2="542.95">
	<stop  offset="0" style="stop-color:#060062"/>
	<stop  offset="1" style="stop-color:#564CFF"/>
</linearGradient>
<path class="st0 letter" d="M571.7,563c0,20.6-20,33.8-43.3,33.8c-21.2,0-36.1-7.8-44.5-23.1l21.6-12.2c4.3,8.2,11.1,11.7,21.4,11.7
	c9.5,0,15.5-3.7,15.5-9.7c0-16.5-56-2.3-56-41.6c0-18.3,16.1-32.8,41.2-32.8c21.8,0,35,10.3,41.2,22l-21.6,12.2
	c-3.3-7.4-10.7-10.9-19-10.9c-7.2,0-12.6,3.5-12.6,8.9C515.6,537.8,571.7,524.6,571.7,563L571.7,563z"/>
<linearGradient id="SVGID_00000077311735070025456500000004044966427774990242_" gradientUnits="userSpaceOnUse" x1="472" y1="542.5" x2="1437.0254" y2="542.5">
	<stop  offset="0" style="stop-color:#060062"/>
	<stop  offset="1" style="stop-color:#564CFF"/>
</linearGradient>
<path class="letter" style="fill:url(#SVGID_00000077311735070025456500000004044966427774990242_);" d="M644.1,488.6c-31.3,0-55.2,24.1-55.2,53.8
	s20.8,54,50.5,54c14,0,25.1-5.5,32.3-14.6v12h27.8v-51.3C699.5,511.8,675.4,488.6,644.1,488.6z M644.1,569.2c-15.1,0-26-12-26-26.4
	s10.9-26.4,26-26.4s26.2,12,26.2,26.4S659.2,569.2,644.1,569.2z"/>
<linearGradient id="Icona_00000010306369546705075290000006952502067423695751_" gradientUnits="userSpaceOnUse" x1="472" y1="538.6" x2="1437.0254" y2="538.6">
	<stop  offset="0" style="stop-color:#060062"/>
	<stop  offset="1" style="stop-color:#564CFF"/>
</linearGradient>
<path id="Icona" style="fill:url(#Icona_00000010306369546705075290000006952502067423695751_);" d="M721.8,512.5v81.4h29.3v-63.6
	c19.8-11.4,8.8-5,23.9-13.9c16.4,9.1,8.1,4.4,24.3,13.9v63.6h29.3v-81.4c-39.5-22.2-53.6-29.2-53.6-29.2S759.7,492.2,721.8,512.5
	L721.8,512.5z"/>
<linearGradient id="SVGID_00000106855944693806152960000011075810399246129800_" gradientUnits="userSpaceOnUse" x1="472" y1="542.5" x2="1437.0254" y2="542.5">
	<stop  offset="0" style="stop-color:#060062"/>
	<stop  offset="1" style="stop-color:#564CFF"/>
</linearGradient>
<path class="letter" style="fill:url(#SVGID_00000106855944693806152960000011075810399246129800_);" d="M903.2,488.6c-31.3,0-55.2,24.1-55.2,53.8
	s20.8,54,50.5,54c14,0,25.1-5.5,32.3-14.6v12h27.8v-51.3C958.6,511.8,934.5,488.6,903.2,488.6z M903.1,569.2c-15.1,0-26-12-26-26.4
	s10.9-26.4,26-26.4s26.2,12,26.2,26.4S918.2,569.2,903.1,569.2z"/>
<linearGradient id="SVGID_00000116956797993394967200000005999256052883839113_" gradientUnits="userSpaceOnUse" x1="472" y1="542.7" x2="1437.0254" y2="542.7">
	<stop  offset="0" style="stop-color:#060062"/>
	<stop  offset="1" style="stop-color:#564CFF"/>
</linearGradient>
<path class="letter" style="fill:url(#SVGID_00000116956797993394967200000005999256052883839113_);" d="M1032.7,516.6c10.1,0,18.3,5.6,22.9,14.4
	l24.1-13.2c-9.3-19.8-27.4-28.6-47-28.9c-30.7-0.2-54.8,24.1-54.8,53.8s24.1,54,54.8,53.8c19.6-0.2,37.7-9.1,47-28.8l-24.1-13.2
	c-4.5,8.9-12.8,14.4-22.9,14.4c-14.6,0-25.5-11.7-25.5-26.2S1018.1,516.6,1032.7,516.6L1032.7,516.6z"/>
<linearGradient id="SVGID_00000026874405814700248650000016618779674603939499_" gradientUnits="userSpaceOnUse" x1="472" y1="542.6" x2="1437.0254" y2="542.6">
	<stop  offset="0" style="stop-color:#060062"/>
	<stop  offset="1" style="stop-color:#564CFF"/>
</linearGradient>
<path class="letter" style="fill:url(#SVGID_00000026874405814700248650000016618779674603939499_);" d="M1147.3,488.7c-31.3,0-55.2,24.1-55.2,53.8
	s20.8,54,50.5,54c14,0,25.1-5.5,32.3-14.6v12h27.8v-51.3C1202.7,511.9,1178.6,488.7,1147.3,488.7z M1147.2,569.2
	c-15.1,0-26-12-26-26.4s10.9-26.4,26-26.4s26.2,12,26.2,26.4S1162.3,569.2,1147.2,569.2z"/>
<linearGradient id="SVGID_00000152974555837643600220000002766119081284472471_" gradientUnits="userSpaceOnUse" x1="472" y1="542.95" x2="1437.0254" y2="542.95">
	<stop  offset="0" style="stop-color:#060062"/>
	<stop  offset="1" style="stop-color:#564CFF"/>
</linearGradient>
<path class="letter" style="fill:url(#SVGID_00000152974555837643600220000002766119081284472471_);" d="M1254.4,521.3c0-5.4,5.4-8.9,12.6-8.9
	c8.2,0,15.7,3.5,18.9,10.9l21.6-12.2c-6.2-11.7-19.4-22-41.2-22c-25.1,0-41.2,14.4-41.2,32.8c0,39.3,56,25.1,56,41.6
	c0,6-6,9.7-15.4,9.7c-10.3,0-17.1-3.5-21.4-11.7l-21.6,12.2c8.4,15.2,23.3,23.1,44.5,23.1c23.3,0,43.3-13.2,43.3-33.8
	C1310.4,524.6,1254.4,537.8,1254.4,521.3L1254.4,521.3z"/>
<linearGradient id="SVGID_00000112608101748690681850000017172982006803604920_" gradientUnits="userSpaceOnUse" x1="472" y1="542.6" x2="1437.0254" y2="542.6">
	<stop  offset="0" style="stop-color:#060062"/>
	<stop  offset="1" style="stop-color:#564CFF"/>
</linearGradient>
<path class="letter" style="fill:url(#SVGID_00000112608101748690681850000017172982006803604920_);" d="M1380.7,488.7c-31.3,0-55.2,24.1-55.2,53.8
	s20.8,54,50.5,54c14,0,25.1-5.5,32.3-14.6v12h27.8v-51.3C1436.1,511.9,1412,488.7,1380.7,488.7z M1380.7,569.2
	c-15.1,0-26-12-26-26.4s10.9-26.4,26-26.4s26.2,12,26.2,26.4S1395.8,569.2,1380.7,569.2z"/>
</svg>
