<svg width="30" height="29" viewBox="0 0 30 29" fill="none" xmlns="http://www.w3.org/2000/svg">
<path d="M13.6302 1.49427C14.1941 0.432397 15.7157 0.432395 16.2796 1.49427L19.7994 8.12139C20.0162 8.5296 20.4091 8.81507 20.8644 8.89512L28.2548 10.1948C29.439 10.403 29.9091 11.8501 29.0735 12.7146L23.8584 18.11C23.5372 18.4423 23.3871 18.9042 23.4517 19.3619L24.4994 26.7923C24.6673 27.9828 23.4364 28.8772 22.3559 28.3496L15.6131 25.057C15.1977 24.8542 14.7121 24.8542 14.2967 25.057L7.55387 28.3496C6.47345 28.8772 5.2425 27.9828 5.41038 26.7923L6.45813 19.3619C6.52267 18.9042 6.37259 18.4423 6.05136 18.11L0.836276 12.7146C0.000660658 11.8501 0.470841 10.403 1.65502 10.1948L9.04543 8.89512C9.50067 8.81507 9.89357 8.5296 10.1104 8.12139L13.6302 1.49427Z" fill="#564CFF"/>
</svg>
