<svg width="229" height="27" viewBox="0 0 229 27" fill="none" xmlns="http://www.w3.org/2000/svg">
<path d="M0 21.5094L5.19355 18.6161C6.22955 20.5763 7.86272 21.4107 10.3373 21.4107C12.6129 21.4107 14.047 20.527 14.047 19.105C14.047 15.1844 0.597168 18.5667 0.597168 9.20037C0.592644 4.84017 4.45162 1.40854 10.4821 1.40854C15.7209 1.40854 18.8877 3.85778 20.3716 6.65243L15.178 9.54577C14.3863 7.77837 12.6084 6.9485 10.6314 6.9485C8.89871 6.9485 7.6139 7.78285 7.6139 9.05682C7.6139 12.9774 21.0638 9.84183 21.0638 18.9615C21.0638 23.8644 16.2683 27 10.6812 27C5.58714 27 2.02675 25.1384 0 21.5094ZM64.1232 11.1831V26.3137H57.102V6.95298C66.1816 2.1173 69.8596 0 69.8596 0C69.8596 0 73.2481 1.66423 82.7123 6.95298V26.3137H75.6911V11.1876C71.7959 8.93122 73.8001 10.0392 69.8551 7.88154C66.2269 9.99435 68.8734 8.46918 64.1187 11.1876L64.1232 11.1831ZM87.3585 14.1033C87.3585 7.14139 93.0949 1.30537 100.609 1.30537C108.124 1.30537 113.91 6.79598 113.91 14.1033V26.3092H107.237V23.4652C105.504 25.6229 102.835 26.9462 99.4738 26.9462C92.353 26.9462 87.3585 21.1595 87.3585 14.0989V14.1033ZM106.889 14.1527C106.889 10.7211 104.219 7.87706 100.609 7.87706C96.9991 7.87706 94.3797 10.7211 94.3797 14.1527C94.3797 17.5843 96.9991 20.4283 100.609 20.4283C104.219 20.4283 106.889 17.5843 106.889 14.1527ZM25.1942 14.1033C25.1942 7.14139 30.9306 1.30537 38.445 1.30537C45.9593 1.30537 51.7455 6.79598 51.7455 14.1033V26.3092H45.0726V23.4652C43.3399 25.6229 40.6708 26.9462 37.3094 26.9462C30.1887 26.9462 25.1942 21.1595 25.1942 14.0989V14.1033ZM44.7243 14.1527C44.7243 10.7211 42.0551 7.87706 38.445 7.87706C34.8348 7.87706 32.2154 10.7211 32.2154 14.1527C32.2154 17.5843 34.8348 20.4283 38.445 20.4283C42.0551 20.4283 44.7243 17.5843 44.7243 14.1527ZM118.556 14.1527C118.556 7.09204 124.342 1.30537 131.707 1.35471C136.403 1.40405 140.755 3.51238 142.981 8.21798L137.195 11.3535C136.105 9.24522 134.128 7.92191 131.707 7.92191C128.197 7.92191 125.577 10.7166 125.577 14.1482C125.577 17.5798 128.197 20.3745 131.707 20.3745C134.132 20.3745 136.109 19.0512 137.195 16.9428L142.981 20.0784C140.755 24.784 136.408 26.8923 131.707 26.9417C124.342 26.991 118.556 21.155 118.556 14.1437V14.1527ZM145.944 14.1033C145.944 7.14139 151.681 1.30537 159.195 1.30537C166.709 1.30537 172.496 6.79598 172.496 14.1033V26.3092H165.823V23.4652C164.09 25.6229 161.421 26.9462 158.06 26.9462C150.939 26.9462 145.944 21.1595 145.944 14.0989V14.1033ZM165.474 14.1527C165.474 10.7211 162.805 7.87706 159.195 7.87706C155.585 7.87706 152.966 10.7211 152.966 14.1527C152.966 17.5843 155.585 20.4283 159.195 20.4283C162.805 20.4283 165.474 17.5843 165.474 14.1527ZM177.287 21.5049L182.48 18.6116C183.516 20.5719 185.149 21.4062 187.624 21.4062C189.9 21.4062 191.334 20.5225 191.334 19.1005C191.334 15.1799 177.884 18.5622 177.884 9.19588C177.884 4.8312 181.738 1.39957 187.773 1.39957C193.012 1.39957 196.179 3.84881 197.663 6.64346L192.469 9.5368C191.677 7.7694 189.9 6.93953 187.923 6.93953C186.19 6.93953 184.905 7.77388 184.905 9.04785C184.905 12.9684 198.355 9.83286 198.355 18.9525C198.355 23.8555 193.559 26.991 187.972 26.991C182.878 26.991 179.318 25.1294 177.291 21.5004L177.287 21.5049ZM201.956 14.1033C201.956 7.14139 207.692 1.30537 215.207 1.30537C222.721 1.30537 228.507 6.79598 228.507 14.1033V26.3092H221.834V23.4652C220.102 25.6229 217.433 26.9462 214.071 26.9462C206.95 26.9462 201.956 21.1595 201.956 14.0989V14.1033ZM221.486 14.1527C221.486 10.7211 218.817 7.87706 215.207 7.87706C211.597 7.87706 208.977 10.7211 208.977 14.1527C208.977 17.5843 211.597 20.4283 215.207 20.4283C218.817 20.4283 221.486 17.5843 221.486 14.1527Z" fill="url(#paint0_linear_2123_470)"/>
<defs>
<linearGradient id="paint0_linear_2123_470" x1="0" y1="13.5022" x2="228.507" y2="13.5022" gradientUnits="userSpaceOnUse">
<stop stop-color="#060062"/>
<stop offset="0.581731" stop-color="#564CFF"/>
</linearGradient>
</defs>
</svg>
